<?xml version="1.0" encoding="UTF-8" standalone="no"?>
<svg
   xmlns:svg="http://www.w3.org/2000/svg"
   xmlns="http://www.w3.org/2000/svg"
   version="1.1"
   id="svg4835"
   viewBox="0 0 718.75306 127.48596"
   height="127.48596"
   width="718.75305">
  <defs
     id="defs4837" />
  <g
     transform="translate(165.0908,-342.90493)"
     id="layer1">
    <path
       id="path363"
       d="m -46.979789,347.90493 -9.627324,36.3054 -67.232267,0 c -13.49939,0 -19.70409,4.43976 -22.13301,13.58107 l -13.11165,49.72746 c -2.92773,11.18706 0.16599,17.86842 14.11153,17.86842 l 92.296613,0 30.949869,-117.48235 -25.253761,0 z m 54.8174822,36.29764 c -12.6093507,0 -19.9967812,3.89953 -22.6480742,13.9146 l -13.035914,49.39393 c -2.685034,10.28189 -1.481977,17.86843 14.414459,17.86843 l 91.819477,0 3.673665,-14.04297 -82.01790522,0 c -2.96790978,0 -3.67071738,-1.06922 -2.72684078,-4.58287 l 3.12831217,-11.86187 86.20667283,0.0388 8.854709,-33.62362 c 2.567524,-9.93867 -0.475119,-17.08852 -12.854104,-17.08852 l -74.8144568,0 z m 98.0760668,0 19.44402,81.18471 23.40556,0 55.45374,-81.18471 -22.43601,0 -38.34269,58.76406 -12.6723,-58.76406 -24.85232,0 z m 126.04914,0 c -12.69941,0 -18.52958,5.46555 -20.76203,13.88435 l -13.04348,49.46219 c -3.32773,12.73795 2.40747,17.83817 14.42206,17.83817 l 67.85336,0 c 19.62711,0 24.2063,-0.42156 28.22303,-15.69469 l 10.49084,-39.88032 2.16633,-8.28655 c 2.63872,-10.07673 -0.74163,-17.32315 -12.96774,-17.32315 l -76.38237,0 z m 116.45206,0 -18.40629,69.60324 c -1.65863,5.93093 -0.48889,11.75095 10.1121,11.58147 l 72.28451,0 3.77973,-14.26286 -57.43069,0.0892 c -1.76962,0 -1.91222,-0.78689 -1.56039,-2.09811 l 17.25497,-64.91449 -26.03394,0 z m 110.44543,0 c -14.0439,0 -18.64845,4.91136 -21.10288,14.17211 l -12.99046,49.17443 c -3.32773,12.73795 2.40747,17.83817 14.42206,17.83817 l 67.82307,0 c 19.62711,0 24.20629,-0.42156 28.22302,-15.69469 l 12.31632,-46.93205 c 3.41359,-13.0327 -1.11506,-18.55797 -12.56631,-18.55797 l -76.12482,0 z m -575.67809,14.58863 52.999576,0 c 2.546582,0 3.06599,0.8947 2.431439,3.22705 l -11.627042,44.23554 c -1.012753,3.91621 -1.439471,5.13551 -5.226457,5.13551 l -53.082876,0 c -2.84187,0 -3.43109,-0.7896 -2.5754,-3.8782 l 11.48312,-43.58439 c 1.00942,-4.03604 1.81923,-5.13551 5.59764,-5.13551 z m 131.169569,0 52.15118,0 c 3.436629,0 3.947465,1.07581 3.105586,4.3176 l -5.355253,20.36831 -60.8165552,0 5.1583179,-19.55776 c 1.0272191,-3.96585 2.3431313,-5.12815 5.7567243,-5.12815 z m 225.534071,0 52.70414,0 c 3.09108,0 3.9266,0.70234 2.94654,4.36298 l -11.65733,44.21304 c -0.78953,3.04323 -2.01725,3.96934 -5.39314,3.96934 l -52.71174,0 c -3.4115,0 -3.96406,-0.70157 -3.16616,-3.68894 l 11.65733,-44.1828 c 1.02826,-3.96662 2.20468,-4.67362 5.62036,-4.67362 z m 226.60966,0 52.67384,0 c 3.08899,0 3.91904,0.70389 2.93894,4.36298 l -11.64976,44.20567 c -0.78534,3.04711 -2.0193,3.97671 -5.39311,3.97671 l -52.68144,0 c -3.40941,0 -3.95988,-0.70661 -3.16617,-3.6967 l 11.64973,-44.17504 c 1.02827,-3.96662 2.21647,-4.67362 5.62797,-4.67362 z"
       style="fill:#3c3f44" />
  </g>
</svg>
